# xmcd
#
# Track frame offsets:
#	150
#	16385
#	33334
#	56303
#	74553
#	90367
#	111334
#	128916
#	147060
#	163837
#	181423
#	198136
#	215674
#	233181
#
# Disc length: 3329 seconds
#
# Revision: 1
# Processed by: cddbd v1.5.2PL0 Copyright (c) Steve Scherf et al.
# Submitted via: audiograbber 1.83.01
#
DISCID=c20cff0e
DTITLE=Various Artist - Chartbusters E7-12
DYEAR=1900
DGENRE=
TTITLE0=Brad Paisley - Me Neither
TTITLE1=Martina McBride - When God Fearing Women Get The Blues
TTITLE2=Keith Urban - You'll Think Of Me
TTITLE3=Cyndi Thomson - I'm Gone
TTITLE4=Billy Currington - I Got A Feelin'
TTITLE5=Dixie Chicks - I Believe In Love
TTITLE6=Blake Shelton - When Somebody Knows You That Well
TTITLE7=Reba McEntire - Somebody
TTITLE8=Brooks and Dunn - That's What It's All About
TTITLE9=Miranda Lambert - Me And Charlie Talking
TTITLE10=Lonestar - Mr. Mom
TTITLE11=Reba McEntire - He Gets That From Me
TTITLE12=Toby Keith - Stays In Mexico
TTITLE13=Phil Vassar - In A Real Love
EXTD=
EXTT0=
EXTT1=
EXTT2=
EXTT3=
EXTT4=
EXTT5=
EXTT6=
EXTT7=
EXTT8=
EXTT9=
EXTT10=
EXTT11=
EXTT12=
EXTT13=
PLAYORDER=
